<svg version="1.1" xmlns="http://www.w3.org/2000/svg" xmlns:xlink="http://www.w3.org/1999/xlink" width="46.55198" height="43.3415" viewBox="0,0,46.55198,43.3415"><g transform="translate(-216.72401,-158.32925)"><g data-paper-data="{&quot;isPaintingLayer&quot;:true}" fill-rule="nonzero" stroke-linejoin="miter" stroke-miterlimit="10" stroke-dasharray="" stroke-dashoffset="0" style="mix-blend-mode: normal"><path d="M216.72401,201.67075v-43.3415h46.55198v43.3415z" fill="#ffab19" stroke="none" stroke-width="0" stroke-linecap="butt"/><path d="M231.11931,178.18238c0,4.33035 -1.17015,7.8408 -2.6136,7.8408c-1.44345,0 -2.6136,-3.51044 -2.6136,-7.8408c0,-4.33035 1.17015,-7.8408 2.6136,-7.8408c1.44345,0 2.6136,3.51044 2.6136,7.8408z" fill="#19ff64" stroke="none" stroke-width="0" stroke-linecap="butt"/><path d="M254.4041,177.94478c0,4.72402 -1.3829,8.5536 -3.0888,8.5536c-1.7059,0 -3.0888,-3.82958 -3.0888,-8.5536c0,-4.72402 1.3829,-8.5536 3.0888,-8.5536c1.7059,0 3.0888,3.82958 3.0888,8.5536z" fill="#19ff64" stroke="none" stroke-width="0" stroke-linecap="butt"/><path d="M238.96011,196.47758c-8.00459,0 -14.49359,-1.3829 -14.49359,-3.0888c0,-1.7059 6.489,-3.0888 14.49359,-3.0888c8.00459,0 14.49359,1.3829 14.49359,3.0888c0,1.7059 -6.489,3.0888 -14.49359,3.0888z" fill="#19ff64" stroke="none" stroke-width="0" stroke-linecap="butt"/><path d="M229.69371,177.94478c0,1.83712 -0.42551,3.3264 -0.9504,3.3264c-0.52489,0 -0.9504,-1.48928 -0.9504,-3.3264c0,-1.83712 0.42551,-3.3264 0.9504,-3.3264c0.52489,0 0.9504,1.48928 0.9504,3.3264z" fill="#000000" stroke="#000000" stroke-width="0.5" stroke-linecap="butt"/><path d="M252.9785,178.18238c0,1.96834 -0.74464,3.564 -1.6632,3.564c-0.91856,0 -1.6632,-1.59566 -1.6632,-3.564c0,-1.96834 0.74464,-3.564 1.6632,-3.564c0.91856,0 1.6632,1.59566 1.6632,3.564z" fill="#000000" stroke="#000000" stroke-width="0.5" stroke-linecap="butt"/><path d="M246.80091,193.62638c0,1.04978 -3.61682,1.9008 -8.0784,1.9008c-4.46158,0 -8.0784,-0.85102 -8.0784,-1.9008c0,-1.04978 3.61682,-1.9008 8.0784,-1.9008c4.46158,0 8.0784,0.85102 8.0784,1.9008z" fill="#000000" stroke="#000000" stroke-width="0.5" stroke-linecap="butt"/><path d="M226.89374,174.67623l0.42019,-3.57155l1.26055,2.73119" fill="none" stroke="#e80000" stroke-width="0.5" stroke-linecap="round"/><path d="M227.7341,170.89459l2.10091,-1.26055" fill="none" stroke="#e80000" stroke-width="0.5" stroke-linecap="round"/><path d="M249.58358,172.9955l2.94128,-2.10091l-2.94128,-2.52109" fill="none" stroke="#e80000" stroke-width="0.5" stroke-linecap="round"/><path d="M251.68449,170.89459l2.10091,4.20182" fill="none" stroke="#e80000" stroke-width="0.5" stroke-linecap="round"/></g></g></svg>