<svg version="1.1" xmlns="http://www.w3.org/2000/svg" xmlns:xlink="http://www.w3.org/1999/xlink" width="84.19826" height="63.91696" viewBox="0,0,84.19826,63.91696"><g transform="translate(-199.95042,-137.75379)"><g data-paper-data="{&quot;isPaintingLayer&quot;:true}" fill-rule="nonzero" stroke-linejoin="miter" stroke-miterlimit="10" stroke-dasharray="" stroke-dashoffset="0" style="mix-blend-mode: normal"><path d="M216.72402,201.67075v-43.3415h46.55198v43.3415z" fill="#000000" stroke="none" stroke-width="0" stroke-linecap="butt"/><path d="M231.11932,178.18238c0,4.33035 -1.17015,7.8408 -2.6136,7.8408c-1.44345,0 -2.6136,-3.51044 -2.6136,-7.8408c0,-4.33035 1.17015,-7.8408 2.6136,-7.8408c1.44345,0 2.6136,3.51044 2.6136,7.8408z" fill="#19ff64" stroke="none" stroke-width="0" stroke-linecap="butt"/><path d="M254.40411,177.94478c0,4.72402 -1.3829,8.5536 -3.0888,8.5536c-1.7059,0 -3.0888,-3.82958 -3.0888,-8.5536c0,-4.72402 1.3829,-8.5536 3.0888,-8.5536c1.7059,0 3.0888,3.82958 3.0888,8.5536z" fill="#19ff64" stroke="none" stroke-width="0" stroke-linecap="butt"/><path d="M238.96012,196.47758c-8.00459,0 -14.49359,-1.3829 -14.49359,-3.0888c0,-1.7059 6.489,-3.0888 14.49359,-3.0888c8.00459,0 14.49359,1.3829 14.49359,3.0888c0,1.7059 -6.489,3.0888 -14.49359,3.0888z" fill="#ff0000" stroke="none" stroke-width="0" stroke-linecap="butt"/><path d="M229.69372,177.94478c0,1.83712 -0.42551,3.3264 -0.9504,3.3264c-0.52489,0 -0.9504,-1.48928 -0.9504,-3.3264c0,-1.83712 0.42551,-3.3264 0.9504,-3.3264c0.52489,0 0.9504,1.48928 0.9504,3.3264z" fill="#000000" stroke="#ff0000" stroke-width="0.5" stroke-linecap="butt"/><path d="M252.97851,178.18238c0,1.96834 -0.74464,3.564 -1.6632,3.564c-0.91856,0 -1.6632,-1.59566 -1.6632,-3.564c0,-1.96834 0.74464,-3.564 1.6632,-3.564c0.91856,0 1.6632,1.59566 1.6632,3.564z" fill="#000000" stroke="#ff0000" stroke-width="0.5" stroke-linecap="butt"/><path d="M246.80092,193.62638c0,1.04978 -3.61682,1.9008 -8.0784,1.9008c-4.46158,0 -8.0784,-0.85102 -8.0784,-1.9008c0,-1.04978 3.61682,-1.9008 8.0784,-1.9008c4.46158,0 8.0784,0.85102 8.0784,1.9008z" fill="#ff0000" stroke="#ff0000" stroke-width="0.5" stroke-linecap="butt"/><path d="M234.80214,190.31818l-2.32741,3.41353l-2.17225,-2.94805" fill="none" stroke="#000000" stroke-width="0.5" stroke-linecap="round"/><path d="M244.26693,190.47334l-2.17225,2.63773l-2.17225,-2.94805" fill="none" stroke="#000000" stroke-width="0.5" stroke-linecap="round"/><path d="M234.80214,196.99008l0.62064,-1.24128l1.08613,-2.79289l2.17225,4.34449" fill="none" stroke="#000000" stroke-width="0.5" stroke-linecap="round"/><path d="M243.95661,196.5246l1.24128,-2.63773l1.70677,1.70676l1.24128,1.24129" fill="none" stroke="#000000" stroke-width="0.5" stroke-linecap="round"/><path d="M251.71464,191.71462l-2.17225,1.86193l-1.39645,-2.63773l-0.46548,-1.08613" fill="none" stroke="#000000" stroke-width="0.5" stroke-linecap="round"/><path d="M226.73379,195.43847l1.86193,-3.25837l1.5516,4.96514" fill="none" stroke="#000000" stroke-width="0.5" stroke-linecap="round"/><path d="M216.91302,171.13738l-9.18478,5.60427l8.76495,-10.78369l-14.58509,-11.48188l27.92889,4.49965" fill="none" stroke="#000000" stroke-width="0.5" stroke-linecap="round"/><path d="M257.92106,158.35511l19.70538,-8.53383l-14.27477,18.92958l11.31643,8.6135l-11.67555,-4.35887" fill="none" stroke="#000000" stroke-width="0.5" stroke-linecap="round"/><path d="M203.52505,155.56998l13.07662,4.67022" fill="none" stroke="#000000" stroke-width="0.5" stroke-linecap="round"/><path d="M262.6812,159.30614l14.63336,-9.0291" fill="none" stroke="#000000" stroke-width="0.5" stroke-linecap="round"/><path d="M231.23503,159.46184l0.62269,-1.86809l3.26916,-12.92095l6.07129,14.63336" fill="none" stroke="#000000" stroke-width="0.5" stroke-linecap="round"/><path d="M240.26413,156.81537l5.91562,-14.63336l4.2032,13.69932l0.31135,1.24539l0.46703,2.80213" fill="none" stroke="#000000" stroke-width="0.5" stroke-linecap="round"/><path d="M237.61767,150.58841l3.42483,-6.84966l1.86809,5.91562" fill="none" stroke="#000000" stroke-width="0.5" stroke-linecap="round"/><path d="M250.22727,155.72565l6.69398,-12.6096v1.24539l-0.46702,14.32202" fill="none" stroke="#000000" stroke-width="0.5" stroke-linecap="round"/><path d="M228.74425,151.36678l1.40106,-8.4064l3.11348,6.69399l0.15568,0.93404" fill="none" stroke="#000000" stroke-width="0.5" stroke-linecap="round"/><path d="M248.35918,150.43274l3.11348,-7.7837l2.17944,5.75994" fill="none" stroke="#000000" stroke-width="0.5" stroke-linecap="round"/><path d="M215.2006,156.19268l-12.92095,-6.38264l23.66246,5.29292" fill="none" stroke="#000000" stroke-width="0.5" stroke-linecap="round"/><path d="M231.85773,156.65969l-6.69398,-10.89718l1.24539,12.29825l-21.48303,-7.7837" fill="none" stroke="#000000" stroke-width="0.5" stroke-linecap="round"/><path d="M219.87082,153.54622l-16.03443,-10.11882l21.17167,5.60427" fill="none" stroke="#000000" stroke-width="0.5" stroke-linecap="round"/><path d="M204.61476,143.27173l21.17168,10.27449" fill="none" stroke="#000000" stroke-width="0.5" stroke-linecap="round"/><path d="M255.83154,153.23487l19.77061,-10.89719l-11.98691,13.54364" fill="none" stroke="#000000" stroke-width="0.5" stroke-linecap="round"/><path d="M255.98721,155.88133l19.30358,-12.92095" fill="none" stroke="#000000" stroke-width="0.5" stroke-linecap="round"/><path d="M256.60991,147.63061l16.1901,-9.18478l-4.8259,7.93938" fill="none" stroke="#000000" stroke-width="0.5" stroke-linecap="round"/><path d="M273.73406,139.06854l-17.4355,12.45392" fill="none" stroke="#000000" stroke-width="0.5" stroke-linecap="round"/><path d="M226.40913,173.00548l1.08972,2.64646" fill="none" stroke="#ff0000" stroke-width="0.5" stroke-linecap="round"/><path d="M230.45666,173.93953l-1.40107,1.55674" fill="none" stroke="#ff0000" stroke-width="0.5" stroke-linecap="round"/><path d="M226.87615,183.59132l1.08972,-2.33511" fill="none" stroke="#ff0000" stroke-width="0.5" stroke-linecap="round"/><path d="M230.61234,183.43564l-1.71242,-2.02376" fill="none" stroke="#ff0000" stroke-width="0.5" stroke-linecap="round"/><path d="M248.8262,183.747l1.71242,-2.49079" fill="none" stroke="#ff0000" stroke-width="0.5" stroke-linecap="round"/><path d="M253.6521,183.74699l-1.71242,-2.17944" fill="none" stroke="#ff0000" stroke-width="0.5" stroke-linecap="round"/><path d="M250.07159,176.11896l-1.24539,-1.71242" fill="none" stroke="#ff0000" stroke-width="0.5" stroke-linecap="round"/><path d="M253.96345,174.56222l-1.55674,1.24539" fill="none" stroke="#ff0000" stroke-width="0.5" stroke-linecap="round"/><path d="M251.93969,161.95262l2.33511,-0.93404l-1.2454,-1.71241l-6.84966,19.14791l-3.11348,-2.49079h4.04753" fill="none" stroke="#ff0000" stroke-width="0.5" stroke-linecap="round"/><path d="M233.72582,174.56222l2.9578,0.77837l-2.17943,2.64646l-3.58051,-15.25606l-1.55674,2.17944l2.02376,0.31135" fill="none" stroke="#ff0000" stroke-width="0.5" stroke-linecap="round"/><path d="M242.75491,161.79695l-2.80213,4.51455l-2.17944,-3.58051l4.35888,0.15568" fill="#ff0000" stroke="#ff0000" stroke-width="0.5" stroke-linecap="round"/><path d="M216.91301,175.49626l-10.27449,5.13725l7.16101,-7.16101" fill="none" stroke="#000000" stroke-width="0.5" stroke-linecap="round"/><path d="M266.8844,174.71789l9.34045,5.13725l-12.92095,-2.64646" fill="none" stroke="#000000" stroke-width="0.5" stroke-linecap="round"/><path d="M271.0876,179.23244l5.60427,3.26916l-14.32202,-2.80213" fill="none" stroke="#000000" stroke-width="0.5" stroke-linecap="round"/><path d="M213.79954,177.36436l-4.51455,6.07129l7.31668,-5.13725l-1.08972,0.46702l-2.02376,11.05286l0.15567,-8.56208l-0.77837,1.71242" fill="none" stroke="#000000" stroke-width="0.5" stroke-linecap="round"/><path d="M266.8844,180.78919l-1.71242,8.87342l-1.40107,-9.49612" fill="none" stroke="#000000" stroke-width="0.5" stroke-linecap="round"/><path d="M217.0687,198.38036l-2.95781,-1.24539l2.80213,-1.71242l-0.93404,-1.08972l-2.49079,-1.40107l3.5805,-0.46702" fill="none" stroke="#000000" stroke-width="0.5" stroke-linecap="round"/><path d="M262.99254,193.39879l2.95781,2.02376l-3.11348,1.55674l5.29292,1.71242l-5.91562,0.93404" fill="none" stroke="#000000" stroke-width="0.5" stroke-linecap="round"/><path d="M212.92487,169.32959l-7.72161,0.4826l-3.69994,-1.9304l-1.28694,-4.82601l1.76954,-3.53907l1.12607,2.57387l0.9652,4.02167l1.4478,0.9652h4.82601l6.27381,-0.64347z" fill="none" stroke="#000000" stroke-width="0.5" stroke-linecap="round"/><path d="M265.36749,165.79051l8.52595,-0.64347l2.8956,3.21734l5.30861,-0.32173l-4.66514,1.4478l1.76954,3.53907l-3.37821,-1.76954l-2.8956,1.28694l1.9304,-3.21734l-2.413,-2.413l-8.04335,0.4826" fill="none" stroke="#000000" stroke-width="0.5" stroke-linecap="round"/><path d="M224.74585,165.75076l6.99892,5.14626" fill="none" stroke="#ff0000" stroke-width="0.5" stroke-linecap="round"/><path d="M254.38835,164.51565l-5.14627,5.76381" fill="none" stroke="#ff0000" stroke-width="0.5" stroke-linecap="round"/><path d="M215.27672,180.9837l-0.20585,8.23403l2.47021,-8.43988" fill="none" stroke="#000000" stroke-width="0.5" stroke-linecap="round"/><path d="M263.03407,186.12997l1.64681,6.38137l-0.4117,-7.82232" fill="none" stroke="#000000" stroke-width="0.5" stroke-linecap="round"/></g></g></svg>