<svg version="1.1" xmlns="http://www.w3.org/2000/svg" xmlns:xlink="http://www.w3.org/1999/xlink" width="78.66899" height="43.3415" viewBox="0,0,78.66899,43.3415"><g transform="translate(-211.10187,-154.58116)"><g data-paper-data="{&quot;isPaintingLayer&quot;:true}" fill-rule="nonzero" stroke-linejoin="miter" stroke-miterlimit="10" stroke-dasharray="" stroke-dashoffset="0" style="mix-blend-mode: normal"><path d="M211.10188,197.92266v-43.3415h46.55198v43.3415z" fill="#ffab19" stroke="none" stroke-width="0" stroke-linecap="butt"/><path d="M225.49718,174.43429c0,4.33035 -1.17015,7.8408 -2.6136,7.8408c-1.44345,0 -2.6136,-3.51044 -2.6136,-7.8408c0,-4.33035 1.17015,-7.8408 2.6136,-7.8408c1.44345,0 2.6136,3.51044 2.6136,7.8408z" fill="#19ff64" stroke="none" stroke-width="0" stroke-linecap="butt"/><path d="M248.78197,174.19669c0,4.72402 -1.3829,8.5536 -3.0888,8.5536c-1.7059,0 -3.0888,-3.82958 -3.0888,-8.5536c0,-4.72402 1.3829,-8.5536 3.0888,-8.5536c1.7059,0 3.0888,3.82958 3.0888,8.5536z" fill="#19ff64" stroke="none" stroke-width="0" stroke-linecap="butt"/><path d="M233.33798,192.72949c-8.00459,0 -14.49359,-1.3829 -14.49359,-3.0888c0,-1.7059 6.489,-3.0888 14.49359,-3.0888c8.00459,0 14.49359,1.3829 14.49359,3.0888c0,1.7059 -6.489,3.0888 -14.49359,3.0888z" fill="#19ff64" stroke="none" stroke-width="0" stroke-linecap="butt"/><path d="M224.07158,174.19669c0,1.83712 -0.42551,3.3264 -0.9504,3.3264c-0.52489,0 -0.9504,-1.48928 -0.9504,-3.3264c0,-1.83712 0.42551,-3.3264 0.9504,-3.3264c0.52489,0 0.9504,1.48928 0.9504,3.3264z" fill="#000000" stroke="#d3ff66" stroke-width="0.5" stroke-linecap="butt"/><path d="M247.35637,174.43429c0,1.96834 -0.74464,3.564 -1.6632,3.564c-0.91856,0 -1.6632,-1.59566 -1.6632,-3.564c0,-1.96834 0.74464,-3.564 1.6632,-3.564c0.91856,0 1.6632,1.59566 1.6632,3.564z" fill="#000000" stroke="#000000" stroke-width="0.5" stroke-linecap="butt"/><path d="M241.17878,189.87829c0,1.04978 -3.61682,1.9008 -8.0784,1.9008c-4.46158,0 -8.0784,-0.85102 -8.0784,-1.9008c0,-1.04978 3.61682,-1.9008 8.0784,-1.9008c4.46158,0 8.0784,0.85102 8.0784,1.9008z" fill="#000000" stroke="#000000" stroke-width="0.5" stroke-linecap="butt"/><path d="M228.74957,191.39655v-3.21265" fill="none" stroke="#00e6ff" stroke-width="2" stroke-linecap="round"/><path d="M233.02345,187.50403l0.20837,4.16745" fill="none" stroke="#00e6ff" stroke-width="2" stroke-linecap="round"/><path d="M237.39927,187.50403l-0.20837,3.75071" fill="none" stroke="#00e6ff" stroke-width="2" stroke-linecap="round"/><path d="M229.48111,188.75427c0,0.34524 -0.27987,0.62512 -0.62512,0.62512c-0.34524,0 -0.62512,-0.27987 -0.62512,-0.62512c0,-0.34524 0.27987,-0.62512 0.62512,-0.62512c0.34524,0 0.62512,0.27987 0.62512,0.62512z" fill="#140d21" stroke="#ff0000" stroke-width="1" stroke-linecap="butt"/><path d="M255.52769,196.04731l14.37771,-21.46238" fill="none" stroke="#000000" stroke-width="1" stroke-linecap="round"/><path d="M261.74568,168.22292l7.79802,-12.07929l18.73166,12.09259l-7.79802,12.07929z" fill="#140d21" stroke="#000000" stroke-width="1" stroke-linecap="butt"/><text transform="translate(264.86492,162.76409) rotate(33.40457) scale(0.18103,0.18103)" font-size="40" xml:space="preserve" fill="#ff0000" fill-rule="nonzero" stroke="none" stroke-width="1" stroke-linecap="butt" stroke-linejoin="miter" stroke-miterlimit="10" stroke-dasharray="" stroke-dashoffset="0" font-family="Pixel" font-weight="normal" text-anchor="start" style="mix-blend-mode: normal"><tspan x="0" dy="0">school</tspan></text><path d="M269.28028,157.08163l10.627,19.17028" fill="none" stroke="#ff6300" stroke-width="0.5" stroke-linecap="round"/><path d="M262.61235,166.87514l22.29587,0.20837" fill="none" stroke="#ff6300" stroke-width="0.5" stroke-linecap="round"/></g></g></svg>